grf.mot
version=1
nRows=112
nColumns=19
inDegrees=yes
endheader
time	ground_force_vx	ground_force_vy	ground_force_vz	ground_force_px	ground_force_py	ground_force_pz	1_ground_force_vx	1_ground_force_vy	1_ground_force_vz	1_ground_force_px	1_ground_force_py	1_ground_force_pz	ground_torque_x	ground_torque_y	ground_torque_z	1_ground_torque_x	1_ground_torque_y	1_ground_torque_z	
2.47987	29.2586	505.392	-37.22	-0.141357	-0.0123671	0.0810004	0	0	0	0	0	0	0	0.825123	0	0	0	0
2.48154	29.7724	507.431	-37.0094	-0.144321	-0.0126265	0.0810899	0	0	0	0	0	0	0	0.860569	0	0	0	0
2.4832	30.2864	509.567	-36.8122	-0.147338	-0.0128904	0.0811894	0	0	0	0	0	0	0	0.893652	0	0	0	0
2.48487	30.8003	511.797	-36.6288	-0.150403	-0.0131586	0.0812988	0	0	0	0	0	0	0	0.924382	0	0	0	0
2.48654	31.3136	514.118	-36.4599	-0.153514	-0.0134307	0.0814177	0	0	0	0	0	0	0	0.952779	0	0	0	0
2.4882	31.8259	516.528	-36.3061	-0.156664	-0.0137063	0.0815458	0	0	0	0	0	0	0	0.978867	0	0	0	0
2.48987	32.3366	519.024	-36.1678	-0.159849	-0.013985	0.0816826	0	0	0	0	0	0	0	1.00268	0	0	0	0
2.49154	32.8453	521.604	-36.0456	-0.163065	-0.0142664	0.0818277	0	0	0	0	0	0	0	1.02425	0	0	0	0
2.4932	33.3515	524.266	-35.9399	-0.166306	-0.0145499	0.0819808	0	0	0	0	0	0	0	1.04362	0	0	0	0
2.49487	33.8547	527.007	-35.8514	-0.169567	-0.0148352	0.0821413	0	0	0	0	0	0	0	1.06084	0	0	0	0
2.49654	34.3544	529.827	-35.7803	-0.172841	-0.0151216	0.0823086	0	0	0	0	0	0	0	1.07596	0	0	0	0
2.4982	34.8502	532.722	-35.7271	-0.176123	-0.0154088	0.0824824	0	0	0	0	0	0	0	1.08905	0	0	0	0
2.49987	35.3415	535.692	-35.6923	-0.179406	-0.015696	0.082662	0	0	0	0	0	0	0	1.10016	0	0	0	0
2.50154	35.8278	538.734	-35.6761	-0.182685	-0.0159829	0.0828468	0	0	0	0	0	0	0	1.10935	0	0	0	0
2.5032	36.3089	541.848	-35.679	-0.185952	-0.0162687	0.0830363	0	0	0	0	0	0	0	1.11671	0	0	0	0
2.50487	36.7841	545.032	-35.7011	-0.189201	-0.0165529	0.0832298	0	0	0	0	0	0	0	1.1223	0	0	0	0
2.50654	37.2532	548.286	-35.7428	-0.192425	-0.016835	0.0834267	0	0	0	0	0	0	0	1.1262	0	0	0	0
2.5082	37.7157	551.608	-35.8044	-0.195617	-0.0171143	0.0836263	0	0	0	0	0	0	0	1.12849	0	0	0	0
2.50987	38.1713	554.997	-35.8859	-0.19877	-0.0173902	0.0838281	0	0	0	0	0	0	0	1.12924	0	0	0	0
2.51154	38.6197	558.454	-35.9876	-0.201878	-0.0176621	0.0840312	0	0	0	0	0	0	0	1.12855	0	0	0	0
2.5132	39.0607	561.977	-36.1096	-0.204933	-0.0179294	0.0842351	0	0	0	0	0	0	0	1.12648	0	0	0	0
2.51487	39.4939	565.566	-36.252	-0.207929	-0.0181914	0.084439	0	0	0	0	0	0	0	1.12313	0	0	0	0
2.51654	39.9193	569.221	-36.4148	-0.210857	-0.0184477	0.0846423	0	0	0	0	0	0	0	1.11858	0	0	0	0
2.5182	40.3367	572.943	-36.598	-0.213713	-0.0186975	0.0848442	0	0	0	0	0	0	0	1.1129	0	0	0	0
2.51987	40.7459	576.73	-36.8016	-0.216488	-0.0189403	0.0850441	0	0	0	0	0	0	0	1.10619	0	0	0	0
2.52153	41.147	580.584	-37.0256	-0.219177	-0.0191755	0.0852413	0	0	0	0	0	0	0	1.09853	0	0	0	0
2.5232	41.5399	584.505	-37.2698	-0.221772	-0.0194026	0.0854351	0	0	0	0	0	0	0	1.08998	0	0	0	0
2.52487	41.9248	588.493	-37.5341	-0.224268	-0.019621	0.0856248	0	0	0	0	0	0	0	1.08063	0	0	0	0
2.52654	42.3018	592.548	-37.8183	-0.226659	-0.0198301	0.0858098	0	0	0	0	0	0	0	1.07055	0	0	0	0
2.5282	42.6711	596.672	-38.1221	-0.228939	-0.0200296	0.0859894	0	0	0	0	0	0	0	1.05982	0	0	0	0
2.52987	43.0328	600.865	-38.4453	-0.231102	-0.0202189	0.086163	0	0	0	0	0	0	0	1.0485	0	0	0	0
2.53154	43.3875	605.127	-38.7877	-0.233144	-0.0203975	0.08633	0	0	0	0	0	0	0	1.03665	0	0	0	0
2.5332	43.7353	609.46	-39.1487	-0.23506	-0.0205652	0.0864897	0	0	0	0	0	0	0	1.02433	0	0	0	0
2.53487	44.0768	613.864	-39.5281	-0.236845	-0.0207213	0.0866417	0	0	0	0	0	0	0	1.0116	0	0	0	0
2.53654	44.4126	618.341	-39.9255	-0.238496	-0.0208658	0.0867854	0	0	0	0	0	0	0	0.998505	0	0	0	0
2.5382	44.7431	622.891	-40.3403	-0.240009	-0.0209981	0.0869202	0	0	0	0	0	0	0	0.985092	0	0	0	0
2.53987	45.0691	627.515	-40.7722	-0.24138	-0.0211181	0.0870457	0	0	0	0	0	0	0	0.971399	0	0	0	0
2.54154	45.3912	632.214	-41.2204	-0.242608	-0.0212255	0.0871614	0	0	0	0	0	0	0	0.957459	0	0	0	0
2.5432	45.7103	636.989	-41.6846	-0.24369	-0.0213202	0.087267	0	0	0	0	0	0	0	0.943298	0	0	0	0
2.54487	46.0272	641.841	-42.1641	-0.244626	-0.021402	0.087362	0	0	0	0	0	0	0	0.928936	0	0	0	0
2.54654	46.3429	646.771	-42.6582	-0.245412	-0.0214709	0.0874461	0	0	0	0	0	0	0	0.914388	0	0	0	0
2.5482	46.6583	651.779	-43.1663	-0.246051	-0.0215267	0.087519	0	0	0	0	0	0	0	0.899662	0	0	0	0
2.54987	46.9745	656.867	-43.6877	-0.24654	-0.0215696	0.0875805	0	0	0	0	0	0	0	0.884757	0	0	0	0
2.55154	47.2926	662.035	-44.2217	-0.246883	-0.0215995	0.0876304	0	0	0	0	0	0	0	0.869667	0	0	0	0
2.5532	47.6138	667.283	-44.7674	-0.247079	-0.0216167	0.0876684	0	0	0	0	0	0	0	0.854379	0	0	0	0
2.55487	47.9393	672.612	-45.3243	-0.247131	-0.0216212	0.0876946	0	0	0	0	0	0	0	0.838873	0	0	0	0
2.55654	48.2705	678.022	-45.8913	-0.247041	-0.0216134	0.0877087	0	0	0	0	0	0	0	0.823122	0	0	0	0
2.5582	48.6086	683.514	-46.4678	-0.246813	-0.0215934	0.0877108	0	0	0	0	0	0	0	0.807092	0	0	0	0
2.55987	48.9551	689.086	-47.0528	-0.246451	-0.0215617	0.0877009	0	0	0	0	0	0	0	0.790742	0	0	0	0
2.56154	49.3113	694.74	-47.6455	-0.245958	-0.0215187	0.0876791	0	0	0	0	0	0	0	0.774024	0	0	0	0
2.5632	49.6789	700.475	-48.2449	-0.245342	-0.0214647	0.0876455	0	0	0	0	0	0	0	0.756884	0	0	0	0
2.56487	50.0592	706.29	-48.8502	-0.244607	-0.0214004	0.0876004	0	0	0	0	0	0	0	0.739262	0	0	0	0
2.56653	50.454	712.185	-49.4604	-0.243759	-0.0213262	0.0875438	0	0	0	0	0	0	0	0.721091	0	0	0	0
2.5682	50.8646	718.158	-50.0746	-0.242806	-0.0212429	0.0874762	0	0	0	0	0	0	0	0.702299	0	0	0	0
2.56987	51.2928	724.208	-50.6918	-0.241756	-0.021151	0.0873978	0	0	0	0	0	0	0	0.682806	0	0	0	0
2.57154	51.7402	730.334	-51.311	-0.240617	-0.0210514	0.0873091	0	0	0	0	0	0	0	0.662531	0	0	0	0
2.5732	52.2084	736.533	-51.9312	-0.239398	-0.0209447	0.0872103	0	0	0	0	0	0	0	0.641384	0	0	0	0
2.57487	52.6991	742.805	-52.5515	-0.238107	-0.0208318	0.0871022	0	0	0	0	0	0	0	0.619272	0	0	0	0
2.57654	53.214	749.147	-53.1707	-0.236756	-0.0207136	0.086985	0	0	0	0	0	0	0	0.596099	0	0	0	0
2.5782	53.7546	755.555	-53.788	-0.235355	-0.020591	0.0868595	0	0	0	0	0	0	0	0.571763	0	0	0	0
2.57987	54.3226	762.028	-54.4023	-0.233914	-0.0204649	0.0867262	0	0	0	0	0	0	0	0.546161	0	0	0	0
2.58154	54.9197	768.562	-55.0125	-0.232444	-0.0203363	0.0865857	0	0	0	0	0	0	0	0.519186	0	0	0	0
2.5832	55.5475	775.153	-55.6176	-0.230959	-0.0202064	0.0864389	0	0	0	0	0	0	0	0.490728	0	0	0	0
2.58487	56.2075	781.797	-56.2165	-0.229469	-0.020076	0.0862863	0	0	0	0	0	0	0	0.460678	0	0	0	0
2.58654	56.9012	788.491	-56.8084	-0.227988	-0.0199464	0.0861287	0	0	0	0	0	0	0	0.428923	0	0	0	0
2.5882	57.6303	795.23	-57.392	-0.226527	-0.0198187	0.0859671	0	0	0	0	0	0	0	0.395352	0	0	0	0
2.58987	58.396	802.009	-57.9665	-0.225101	-0.0196939	0.0858021	0	0	0	0	0	0	0	0.359853	0	0	0	0
2.59154	59.1999	808.823	-58.5307	-0.223723	-0.0195733	0.0856346	0	0	0	0	0	0	0	0.322315	0	0	0	0
2.5932	60.0432	815.667	-59.0837	-0.222405	-0.019458	0.0854655	0	0	0	0	0	0	0	0.282628	0	0	0	0
2.59487	60.9272	822.533	-59.6244	-0.221161	-0.0193492	0.0852957	0	0	0	0	0	0	0	0.240684	0	0	0	0
2.59654	61.8532	829.417	-60.1518	-0.220006	-0.0192481	0.0851261	0	0	0	0	0	0	0	0.19638	0	0	0	0
2.5982	62.8221	836.312	-60.665	-0.218952	-0.0191559	0.0849576	0	0	0	0	0	0	0	0.149613	0	0	0	0
2.59987	63.8351	843.211	-61.163	-0.218013	-0.0190737	0.0847911	0	0	0	0	0	0	0	0.100286	0	0	0	0
2.60153	64.8929	850.106	-61.6447	-0.217203	-0.0190028	0.0846277	0	0	0	0	0	0	0	0.0483067	0	0	0	0
2.6032	65.9966	856.991	-62.1094	-0.216534	-0.0189444	0.0844681	0	0	0	0	0	0	0	-0.00641157	0	0	0	0
2.60487	67.1466	863.856	-62.5559	-0.216021	-0.0188994	0.0843134	0	0	0	0	0	0	0	-0.06395	0	0	0	0
2.60654	68.3437	870.694	-62.9834	-0.215675	-0.0188692	0.0841645	0	0	0	0	0	0	0	-0.124383	0	0	0	0
2.6082	69.5884	877.497	-63.3909	-0.21551	-0.0188547	0.0840223	0	0	0	0	0	0	0	-0.187776	0	0	0	0
2.60987	70.8808	884.256	-63.7777	-0.215537	-0.0188571	0.0838877	0	0	0	0	0	0	0	-0.254189	0	0	0	0
2.61154	72.2213	890.961	-64.1428	-0.215768	-0.0188773	0.0837615	0	0	0	0	0	0	0	-0.323672	0	0	0	0
2.6132	73.61	897.604	-64.4854	-0.216214	-0.0189163	0.0836447	0	0	0	0	0	0	0	-0.396264	0	0	0	0
2.61487	75.0467	904.174	-64.8047	-0.216886	-0.0189751	0.083538	0	0	0	0	0	0	0	-0.471997	0	0	0	0
2.61654	76.5312	910.662	-65.0999	-0.217795	-0.0190546	0.0834423	0	0	0	0	0	0	0	-0.550891	0	0	0	0
2.6182	78.0632	917.057	-65.3701	-0.218948	-0.0191555	0.0833583	1.42436	26.5467	-7.2165	0.0798987	0.00699023	-0.0518566	0	-0.632955	0	0	-0.581024	0
2.61987	79.6422	923.35	-65.6148	-0.220355	-0.0192786	0.0832868	1.43971	30.2551	-7.59581	0.0846417	0.00740519	-0.055004	0	-0.718187	0	0	-0.618514	0
2.62154	81.2674	929.529	-65.8331	-0.222023	-0.0194245	0.0832283	1.43932	34.1401	-7.96799	0.0894104	0.00782239	-0.0581939	0	-0.806572	0	0	-0.655843	0
2.6232	82.9381	935.584	-66.0243	-0.223961	-0.019594	0.0831835	1.42167	38.2022	-8.33169	0.0941971	0.00824117	-0.0614224	0	-0.898085	0	0	-0.692886	0
2.62487	84.6531	941.505	-66.1879	-0.226173	-0.0197876	0.083153	1.3852	42.4418	-8.6856	0.098994	0.00866084	-0.0646853	0	-0.992685	0	0	-0.729512	0
2.62654	86.4115	947.279	-66.3231	-0.228665	-0.0200056	0.0831374	1.32835	46.859	-9.02834	0.103793	0.00908072	-0.0679785	0	-1.09032	0	0	-0.765584	0
2.6282	88.2117	952.897	-66.4294	-0.231442	-0.0202485	0.0831369	1.24953	51.4538	-9.35855	0.108587	0.00950011	-0.0712976	0	-1.19093	0	0	-0.800962	0
2.62987	90.0523	958.346	-66.5062	-0.234506	-0.0205166	0.0831521	1.14712	56.2259	-9.67487	0.113367	0.00991835	-0.0746384	0	-1.29442	0	0	-0.835501	0
2.63154	91.9317	963.615	-66.5531	-0.237859	-0.02081	0.0831833	1.0195	61.1751	-9.97591	0.118127	0.0103347	-0.0779964	0	-1.40071	0	0	-0.869053	0
2.6332	93.8479	968.693	-66.5694	-0.241504	-0.0211288	0.0832306	0.865044	66.3006	-10.2603	0.122857	0.0107486	-0.0813672	0	-1.50969	0	0	-0.901465	0
2.63487	95.799	973.569	-66.5547	-0.245439	-0.0214731	0.0832943	0.682124	71.6017	-10.5267	0.127551	0.0111593	-0.0847463	0	-1.62123	0	0	-0.932581	0
2.63654	97.7829	978.231	-66.5086	-0.249665	-0.0218428	0.0833744	0.46911	77.0776	-10.7737	0.132201	0.0115661	-0.0881291	0	-1.73521	0	0	-0.962243	0
2.6382	99.7971	982.667	-66.4308	-0.254177	-0.0222376	0.083471	0.224384	82.727	-11	0.136799	0.0119683	-0.0915111	0	-1.85146	0	0	-0.990288	0
2.63987	101.839	986.867	-66.3208	-0.258973	-0.0226572	0.083584	-0.0536614	88.5488	-11.2043	0.141338	0.0123654	-0.0948878	0	-1.96983	0	0	-1.01655	0
2.64154	103.906	990.819	-66.1784	-0.264048	-0.0231012	0.0837132	-0.366614	94.5415	-11.3852	0.14581	0.0127567	-0.0982547	0	-2.09013	0	0	-1.04087	0
2.6432	105.996	994.511	-66.0032	-0.269397	-0.0235691	0.0838584	-0.716038	100.704	-11.5415	0.150209	0.0131416	-0.101607	0	-2.21218	0	0	-1.06307	0
2.64487	108.105	997.933	-65.7951	-0.27501	-0.0240602	0.0840193	-1.10347	107.033	-11.6719	0.154528	0.0135194	-0.104941	0	-2.33576	0	0	-1.08299	0
2.64653	110.23	1001.07	-65.5539	-0.280882	-0.0245739	0.0841953	-1.53041	113.529	-11.7752	0.158759	0.0138896	-0.108252	0	-2.46065	0	0	-1.10046	0
2.6482	112.368	1003.92	-65.2793	-0.287	-0.0251092	0.0843861	-1.99832	120.189	-11.8502	0.162897	0.0142516	-0.111535	0	-2.58662	0	0	-1.1153	0
2.64987	114.516	1006.47	-64.9714	-0.293355	-0.0256652	0.084591	-2.50861	127.01	-11.8958	0.166935	0.0146049	-0.114786	0	-2.71343	0	0	-1.12734	0
2.65154	116.67	1008.7	-64.6299	-0.299934	-0.0262408	0.0848093	-3.06266	133.991	-11.9108	0.170867	0.0149489	-0.118001	0	-2.8408	0	0	-1.13642	0
2.6532	118.827	1010.61	-64.255	-0.306724	-0.0268348	0.0850402	-3.66177	141.13	-11.8942	0.174687	0.0152831	-0.121175	0	-2.96848	0	0	-1.14236	0
2.65487	120.982	1012.19	-63.8466	-0.31371	-0.027446	0.0852829	-4.3072	148.423	-11.845	0.17839	0.0156071	-0.124306	0	-3.09618	0	0	-1.145	0
2.65654	123.131	1013.43	-63.4047	-0.320876	-0.0280729	0.0855363	-5.00012	155.868	-11.7622	0.181971	0.0159203	-0.127388	0	-3.22361	0	0	-1.14418	0
2.6582	125.272	1014.31	-62.9296	-0.328204	-0.028714	0.0857994	-5.74165	163.464	-11.645	0.185423	0.0162224	-0.130418	0	-3.35045	0	0	-1.13971	0
2.65987	127.399	1014.84	-62.4213	-0.335677	-0.0293678	0.0860711	-6.53283	171.206	-11.4925	0.188744	0.0165129	-0.133393	0	-3.47641	0	0	-1.13145	0
2.66154	129.509	1014.99	-61.88	-0.343275	-0.0300325	0.08635	-7.3746	179.092	-11.3038	0.191928	0.0167915	-0.136309	0	-3.60115	0	0	-1.11924	0
2.6632	131.597	1014.77	-61.3059	-0.350978	-0.0307064	0.086635	-8.26785	187.119	-11.0784	0.194972	0.0170578	-0.139162	0	-3.72435	0	0	-1.10292	0
2.66487	133.659	1014.17	-60.6994	-0.358764	-0.0313876	0.0869245	-9.21335	195.285	-10.8155	0.197871	0.0173114	-0.141949	0	-3.84566	0	0	-1.08235	0
